<svg xmlns="http://www.w3.org/2000/svg" viewBox="0 0 64 64" width="64" height="64">
  <defs>
    <linearGradient id="cjGradAlt" x1="0%" y1="0%" x2="100%" y2="100%">
      <stop offset="0%" stop-color="#fbbf24" />
      <stop offset="45%" stop-color="#f43f5e" />
      <stop offset="100%" stop-color="#a855f7" />
    </linearGradient>
    <linearGradient id="playWhiteAlt" x1="0%" y1="0%" x2="100%" y2="100%">
      <stop offset="0%" stop-color="#ffffff" />
      <stop offset="100%" stop-color="#fef08a" />
    </linearGradient>
  </defs>

  <!-- Cinema Badge Frame -->
  <rect x="10" y="10" width="44" height="44" rx="14" fill="url(#cjGradAlt)" />

  <!-- Glass Highlight -->
  <path d="M 14 14 C 20 12, 44 12, 50 14 C 52 22, 50 32, 14 32 Z" fill="#ffffff" opacity="0.22" />

  <!-- Film Strip Dots -->
  <circle cx="16" cy="18" r="1.5" fill="#ffffff" opacity="0.8" />
  <circle cx="16" cy="46" r="1.5" fill="#ffffff" opacity="0.8" />
  <circle cx="48" cy="18" r="1.5" fill="#ffffff" opacity="0.8" />
  <circle cx="48" cy="46" r="1.5" fill="#ffffff" opacity="0.8" />

  <!-- Play Icon -->
  <path d="M 26 21 C 26 19.8, 27.3 19, 28.3 19.7 L 40.3 27.7 C 41.3 28.3, 41.3 29.7, 40.3 30.3 L 28.3 38.3 C 27.3 39, 26 38.2, 26 37 Z" fill="url(#playWhiteAlt)" />
</svg>
